<svg width="28" height="28" viewBox="0 0 28 28" fill="none" xmlns="http://www.w3.org/2000/svg">
<g opacity="0.4">
<path d="M25 6.75C25 5.75544 24.6049 4.80161 23.9017 4.09835C23.1984 3.39509 22.2446 3 21.25 3H6.75C5.75544 3 4.80161 3.39509 4.09835 4.09835C3.39509 4.80161 3 5.75544 3 6.75V21.25C3 22.2446 3.39509 23.1984 4.09835 23.9017C4.80161 24.6049 5.75544 25 6.75 25H21.25C22.2446 25 23.1984 24.6049 23.9017 23.9017C24.6049 23.1984 25 22.2446 25 21.25V6.75ZM23.5 18.5V21.25C23.5 21.8467 23.2629 22.419 22.841 22.841C22.419 23.2629 21.8467 23.5 21.25 23.5H18.5V18.5H23.5ZM18.5 17V11H23.5V17H18.5ZM17 18.5V23.5H11V18.5H17ZM11 17V11H17V17H11ZM9.5 18.5V23.5H6.75C6.15326 23.5 5.58097 23.2629 5.15901 22.841C4.73705 22.419 4.5 21.8467 4.5 21.25V18.5H9.5ZM4.5 17V11H9.5V17H4.5ZM4.5 6.75C4.5 6.15326 4.73705 5.58097 5.15901 5.15901C5.58097 4.73705 6.15326 4.5 6.75 4.5H9.5V9.5H4.5V6.75ZM11 4.5H17V9.5H11V4.5ZM18.5 4.5H21.25C21.8467 4.5 22.419 4.73705 22.841 5.15901C23.2629 5.58097 23.5 6.15326 23.5 6.75V9.5H18.5V4.5Z" fill="#6A0DAD"/>
</g>
</svg>
